Coordinates
version=1
nRows=24
nColumns=24
inDegrees=yes

Units are S.I. units (second, meters, Newtons, ...)
Angles are in degrees.

endheader
time	pelvis_tilt	pelvis_list	pelvis_rotation	pelvis_tx	pelvis_ty	pelvis_tz	hip_flexion_r	hip_adduction_r	hip_rotation_r	knee_angle_r	ankle_angle_r	subtalar_angle_r	mtp_angle_r	hip_flexion_l	hip_adduction_l	hip_rotation_l	knee_angle_l	ankle_angle_l	subtalar_angle_l	mtp_angle_l	lumbar_extension	lumbar_bending	lumbar_rotation
      1.54500000	      7.17712480	     -3.16621480	      7.47846933	     -0.10186971	      1.00592177	      0.01500238	     14.39178248	     -2.24200717	    -28.02383361	    -19.78879779	      0.17942978	     -0.10590564	     11.29720211	     -7.23619161	     -4.84287660	    -13.74062574	    -18.34560342	      7.06469637	      1.61722339	      5.38664396	    -14.86317394	     -5.14118953	    -32.29431909
      1.55000000	      7.11106370	     -2.98796245	      7.73822550	     -0.09590112	      1.00485881	      0.01514757	     14.61602342	     -2.39387118	    -28.73007976	    -18.27662994	     -0.00199421	      0.67124291	     11.22575591	     -7.47281718	     -4.75867604	    -13.56594851	    -18.45173141	      7.33282840	      1.66336880	      5.49441018	    -14.85567755	     -5.29419421	    -32.54411373
      1.55500000	      7.03721991	     -2.79379762	      7.98331264	     -0.08992124	      1.00374984	      0.01530797	     14.84718331	     -2.55934844	    -29.42936571	    -16.80426871	     -0.15854213	      1.57724017	     11.12571124	     -7.70815828	     -4.65449119	    -13.40173932	    -18.55368810	      7.59822578	      1.68408271	      5.65404840	    -14.84443485	     -5.46572478	    -32.79538025
      1.56000000	      6.94099606	     -2.61070229	      8.23340667	     -0.08394574	      1.00257707	      0.01552234	     15.09624293	     -2.70591711	    -30.11353181	    -15.35322827	     -0.30854023	      2.55122421	     11.03406088	     -7.89846651	     -4.57162451	    -13.22874765	    -18.70049245	      7.85897304	      1.72786576	      5.82660368	    -14.80847430	     -5.63112404	    -33.03791985
      1.56500000	      6.84990458	     -2.41512713	      8.47408856	     -0.07796313	      1.00136781	      0.01576736	     15.33757425	     -2.85890183	    -30.78695776	    -13.94601945	     -0.43434446	      3.62892235	     10.93065993	     -8.10143494	     -4.47637393	    -13.06227583	    -18.84026352	      8.11883824	      1.75343313	      6.03435160	    -14.78592262	     -5.81374142	    -33.28646515
      1.57000000	      6.74535201	     -2.21736355	      8.71167385	     -0.07197962	      1.00012023	      0.01602740	     15.59029755	     -3.01206639	    -31.44615663	    -12.58368673	     -0.55401940	      4.77747408	     10.79976545	     -8.28706776	     -4.37934565	    -12.88913423	    -18.98831747	      8.37006659	      1.76472674	      6.28955670	    -14.75308645	     -5.99487703	    -33.52561673
      1.57500000	      6.60663294	     -2.03977607	      8.94466053	     -0.06598130	      0.99879542	      0.01632760	     15.87884845	     -3.14226433	    -32.07597125	    -11.26400431	     -0.68302956	      5.93308206	     10.69749593	     -8.43047184	     -4.30519361	    -12.71450373	    -19.14701154	      8.61502445	      1.81053499	      6.51555555	    -14.67396330	     -6.15695799	    -33.72181738
      1.58000000	      6.50434489	     -1.83306903	      9.18106070	     -0.06000902	      0.99749528	      0.01662751	     16.12543289	     -3.29977648	    -32.67532985	    -10.02249030	     -0.65961723	      7.19021364	      9.67472933	     -8.60761648	     -4.20401107	    -12.51850323	    -19.31389516	      8.70211950	      1.66297038	      7.94578366	    -14.65463142	     -6.35061961	    -33.97127075
      1.58500000	      6.36483893	     -1.65373237	      9.40677494	     -0.05399220	      0.99612847	      0.01698416	     16.41044246	     -3.42711127	    -33.23849939	     -8.82647610	     -0.76624576	      8.37278344	      9.64599543	     -8.74090795	     -4.14125451	    -12.36314935	    -19.50743424	      8.96654852	      1.78254231	      8.03595395	    -14.58303044	     -6.51769167	    -34.17756732
      1.59000000	      6.25727157	     -1.45669021	      9.64946757	     -0.04798071	      0.99479327	      0.01731604	     16.65334276	     -3.57517558	    -33.78552188	     -7.70350078	     -0.83947628	      9.55348098	      9.57591203	     -8.90532212	     -4.06449026	    -12.17740503	    -19.70857591	      9.22228409	      1.79233200	      8.18780002	    -14.55994909	     -6.69679303	    -34.42658573
      1.59500000	      6.13425523	     -1.27456855	      9.89030844	     -0.04194860	      0.99342849	      0.01766495	     16.91277486	     -3.71425117	    -34.28891187	     -6.66335952	     -0.90265624	     10.68449065	      9.47003984	     -9.05020701	     -4.00651005	    -11.97991873	    -19.91565794	      9.45981412	      1.82572987	      8.40244157	    -14.51597626	     -6.85829894	    -34.65773207
      1.60000000	      6.01296651	     -1.10045534	     10.13354541	     -0.03589302	      0.99206168	      0.01799176	     17.16805841	     -3.85320629	    -34.74313555	     -5.71451298	     -0.93165794	     11.73426600	      9.33290091	     -9.19493809	     -3.95949645	    -11.77912819	    -20.12933512	      9.67979549	      1.85314243	      8.67267160	    -14.47100501	     -7.00020795	    -34.88090685
      1.60500000	      5.88069003	     -0.93417935	     10.37444553	     -0.02984368	      0.99068907	      0.01834263	     17.43859612	     -3.99466822	    -35.12126296	     -4.87964595	     -0.85876083	     12.68219927	      8.39340951	     -9.32421110	     -3.92068926	    -11.55654022	    -20.33470136	      9.73481790	      1.76813243	     10.04706343	    -14.41726932	     -7.13624534	    -35.08211105
      1.61000000	      5.74239355	     -0.78401091	     10.62570998	     -0.02374673	      0.98930638	      0.01869792	     17.71390395	     -4.13485824	    -35.46175400	     -4.15091328	     -0.84688304	     13.46731115	      8.35831395	     -9.43764204	     -3.91329008	    -11.34694630	    -20.57575442	      9.96334747	      1.89705760	     10.14430349	    -14.35088493	     -7.25524335	    -35.30698889
      1.61500000	      5.63556373	     -0.63524319	     10.88745140	     -0.01762697	      0.98798002	      0.01901255	     17.94999871	     -4.28642209	    -35.76380692	     -3.53784300	     -0.80710718	     14.14071195	      8.30961820	     -9.58635798	     -3.91208594	    -11.11129175	    -20.81196052	     10.16845328	      1.96051782	     10.29317840	    -14.32218629	     -7.35529876	    -35.53542924
      1.62000000	      5.53971585	     -0.50088727	     11.15280944	     -0.01147042	      0.98668078	      0.01932509	     18.17457964	     -4.43817704	    -36.01833034	     -3.05553898	     -0.72020920	     14.66012953	      8.25421883	     -9.74311595	     -3.93447757	    -10.86915929	    -21.05489922	     10.35929541	      2.03121565	     10.49276384	    -14.30102489	     -7.43568589	    -35.76396266
      1.62500000	      5.47800025	     -0.36983140	     11.39816014	     -0.00523640	      0.98545355	      0.01963264	     18.35948304	     -4.59463314	    -36.20393040	     -2.71023886	     -0.51463487	     15.13917450	      7.75479230	     -9.95218706	     -3.96453677	    -10.66444342	    -21.26446077	     10.35631936	      1.97973448	     11.78705416	    -14.30913812	     -7.50301041	    -35.98165241
      1.63000000	      5.39429087	     -0.25671789	     11.65513917	      0.00099369	      0.98420178	      0.01993637	     18.56892625	     -4.75249888	    -36.29822103	     -2.48561304	     -0.39599262	     15.20979703	      7.75153929	    -10.12319060	     -4.01685866	    -10.41398792	    -21.51022187	     10.57185506	      2.08500020	     11.87635302	    -14.29018153	     -7.54870549	    -36.18209060
      1.63500000	      5.36314703	     -0.17337830	     11.95559003	      0.00733131	      0.98306142	      0.02015279	     18.70369359	     -4.90390084	    -36.49701773	     -2.38774824	     -0.20850238	     15.46726707	      7.68194627	    -10.34762122	     -4.12424633	    -10.13234924	    -21.74043938	     10.63915240	      2.15976950	     12.40558199	    -14.31559295	     -7.53114632	    -36.39928793
      1.64000000	      5.30658583	     -0.09392012	     12.22916210	      0.01366780	      0.98188007	      0.02041491	     18.87398825	     -5.06262382	    -36.51835899	     -2.42254552	     -0.00979262	     15.29442216	      7.69256769	    -10.53448980	     -4.23143894	     -9.86980410	    -22.00600028	     10.78197761	      2.26782257	     12.55353676	    -14.31196880	     -7.52008439	    -36.60751830
      1.64500000	      5.28193535	     -0.02205398	     12.48504054	      0.02008373	      0.98076013	      0.02071379	     18.99674430	     -5.20904332	    -36.43542857	     -2.55506529	      0.19215354	     14.97003318	      7.70092489	    -10.77069195	     -4.35615232	     -9.62775770	    -22.23246961	     10.74877308	      2.30962156	     13.88887494	    -14.33253091	     -7.49544230	    -36.77537011
      1.65000000	      5.26801481	      0.04359831	     12.76763221	      0.02657656	      0.97968042	      0.02093674	     19.10272582	     -5.37932089	    -36.44482821	     -2.82789210	      0.43740890	     14.76850246	      7.73822002	    -11.01636587	     -4.49475982	     -9.34871279	    -22.47162765	     10.85531847	      2.41721202	     13.97414678	    -14.35765307	     -7.45141075	    -36.98954266
      1.65500000	      5.25831835	      0.09767074	     13.01181030	      0.03309292	      0.97859791	      0.02126025	     19.19409677	     -5.51993337	    -36.24521531	     -3.15841939	      0.61017557	     14.19783164	      7.86291911	    -11.25701642	     -4.65159197	     -9.12230381	    -22.73441020	     10.88314825	      2.51794863	     14.60661678	    -14.38045497	     -7.39879449	    -37.13654594
      1.66000000	      5.26655998	      0.14556598	     13.26989239	      0.03969769	      0.97755665	      0.02155640	     19.25270210	     -5.66284633	    -36.08179136	     -3.58160543	      0.78407452	     13.66654114	      8.08525803	    -11.52142770	     -4.82421860	     -8.87684127	    -22.98415756	     10.85897399	      2.61177700	     15.40340108	    -14.41273281	     -7.33148798	    -37.30471528
